<svg viewBox="0 0 400 500" xmlns="http://www.w3.org/2000/svg">
  <!-- Background gradient and definitions -->
  <defs>
    <linearGradient id="bg-gradient" x1="0%" y1="0%" x2="0%" y2="100%">
      <stop offset="0%" stop-color="#0A0A12" />
      <stop offset="100%" stop-color="#000000" />
    </linearGradient>
    
    <!-- Glow filters with different colors -->
    <filter id="cyan-glow" x="-30%" y="-30%" width="160%" height="160%">
      <feGaussianBlur stdDeviation="2" result="blur" />
      <feFlood flood-color="#00FFFF" result="color"/>
      <feComposite in="color" in2="blur" operator="in" result="glow"/>
      <feComposite in="SourceGraphic" in2="glow" operator="over" />
    </filter>
    
    <filter id="soft-glow" x="-20%" y="-20%" width="140%" height="140%">
      <feGaussianBlur stdDeviation="1" result="blur" />
      <feComposite in="SourceGraphic" in2="blur" operator="over" />
    </filter>
  </defs>
  
  <!-- Background -->
  <rect x="0" y="0" width="400" height="500" fill="url(#bg-gradient)" />
  
  <!-- Grid for scale reference -->
  <g id="reference-grid" opacity="0.2">
    <!-- Horizontal guidelines -->
    <line x1="0" y1="100" x2="400" y2="100" stroke="#808080" stroke-width="0.5" />
    <line x1="0" y1="200" x2="400" y2="200" stroke="#808080" stroke-width="0.5" />
    <line x1="0" y1="300" x2="400" y2="300" stroke="#808080" stroke-width="0.5" />
    <line x1="0" y1="400" x2="400" y2="400" stroke="#808080" stroke-width="0.5" />
    
    <!-- Vertical guidelines -->
    <line x1="100" y1="0" x2="100" y2="500" stroke="#808080" stroke-width="0.5" />
    <line x1="200" y1="0" x2="200" y2="500" stroke="#808080" stroke-width="0.5" />
    <line x1="300" y1="0" x2="300" y2="500" stroke="#808080" stroke-width="0.5" />
  </g>
  
  <!-- Main Netrunner Avatar Voxel Structure -->
  <g id="netrunner-avatar">
    <!-- Head voxel -->
    <g id="head" transform="translate(200, 120)">
      <!-- Front face -->
      <rect x="-20" y="-20" width="40" height="40" fill="none" stroke="#00FFFF" stroke-width="2" stroke-opacity="0.9" filter="url(#cyan-glow)" />
      
      <!-- Top connecting lines -->
      <line x1="-20" y1="-20" x2="-15" y2="-25" stroke="#00FFFF" stroke-width="1.5" stroke-opacity="0.7" />
      <line x1="20" y1="-20" x2="15" y2="-25" stroke="#00FFFF" stroke-width="1.5" stroke-opacity="0.7" />
      
      <!-- Top face (partial) -->
      <line x1="-15" y1="-25" x2="15" y2="-25" stroke="#00FFFF" stroke-width="1.5" stroke-opacity="0.7" />
      
      <!-- Side connecting lines -->
      <line x1="-20" y1="-20" x2="-25" y2="-15" stroke="#00FFFF" stroke-width="1.5" stroke-opacity="0.7" />
      <line x1="-20" y1="20" x2="-25" y2="15" stroke="#00FFFF" stroke-width="1.5" stroke-opacity="0.7" />
      
      <!-- Side face (partial) -->
      <line x1="-25" y1="-15" x2="-25" y2="15" stroke="#00FFFF" stroke-width="1.5" stroke-opacity="0.7" />
      
      <!-- Facial feature indicators (minimal) -->
      <line x1="-10" y1="-5" x2="-5" y2="-5" stroke="#00FFFF" stroke-width="1.5" stroke-opacity="0.8" />
      <line x1="10" y1="-5" x2="5" y2="-5" stroke="#00FFFF" stroke-width="1.5" stroke-opacity="0.8" />
      <line x1="-5" y1="10" x2="5" y2="10" stroke="#00FFFF" stroke-width="1.5" stroke-opacity="0.8" />
      
      <!-- Head data flow -->
      <path d="M -15,0 C -10,-10 10,-10 15,0" stroke="#00FFFF" stroke-width="1" stroke-opacity="0.6" fill="none" stroke-dasharray="2 2">
        <animate attributeName="d" values="M -15,0 C -10,-10 10,-10 15,0; M -15,0 C -10,-5 10,-5 15,0; M -15,0 C -10,-10 10,-10 15,0" dur="3s" repeatCount="indefinite" />
      </path>
    </g>
    
    <!-- Torso voxel structure -->
    <g id="torso" transform="translate(200, 190)">
      <!-- Main torso rectangle -->
      <rect x="-30" y="-30" width="60" height="60" fill="none" stroke="#00FFFF" stroke-width="2" stroke-opacity="0.9" filter="url(#cyan-glow)" />
      
      <!-- Top connecting lines to neck -->
      <line x1="0" y1="-30" x2="0" y2="-40" stroke="#00FFFF" stroke-width="2" stroke-opacity="0.9" />
      
      <!-- Depth lines for 3D effect -->
      <line x1="-30" y1="-30" x2="-35" y2="-25" stroke="#00FFFF" stroke-width="1.5" stroke-opacity="0.7" />
      <line x1="30" y1="-30" x2="35" y2="-25" stroke="#00FFFF" stroke-width="1.5" stroke-opacity="0.7" />
      <line x1="-30" y1="30" x2="-35" y2="25" stroke="#00FFFF" stroke-width="1.5" stroke-opacity="0.7" />
      <line x1="30" y1="30" x2="35" y2="25" stroke="#00FFFF" stroke-width="1.5" stroke-opacity="0.7" />
      
      <!-- Back edges -->
      <line x1="-35" y1="-25" x2="-35" y2="25" stroke="#00FFFF" stroke-width="1" stroke-opacity="0.5" stroke-dasharray="3 2" />
      <line x1="-35" y1="-25" x2="35" y2="-25" stroke="#00FFFF" stroke-width="1" stroke-opacity="0.5" stroke-dasharray="3 2" />
      <line x1="35" y1="-25" x2="35" y2="25" stroke="#00FFFF" stroke-width="1" stroke-opacity="0.5" stroke-dasharray="3 2" />
      <line x1="-35" y1="25" x2="35" y2="25" stroke="#00FFFF" stroke-width="1" stroke-opacity="0.5" stroke-dasharray="3 2" />
      
      <!-- Circuit pattern on torso -->
      <path d="M -20,-10 L -10,-10 L -10,0 L 0,0 L 0,10 L 10,10 L 10,20" stroke="#00FFFF" stroke-width="1" stroke-opacity="0.8" fill="none" />
      <path d="M 20,-10 L 10,-10 L 10,0 L 0,0" stroke="#00FFFF" stroke-width="1" stroke-opacity="0.8" fill="none" />
      
      <!-- CPU core visual (center of chest) -->
      <rect x="-10" y="-10" width="20" height="20" fill="none" stroke="#00FFFF" stroke-width="1" stroke-opacity="0.8" />
      <circle cx="0" cy="0" r="5" fill="#00FFFF" fill-opacity="0.3">
        <animate attributeName="fill-opacity" values="0.3;0.6;0.3" dur="2s" repeatCount="indefinite" />
        <animate attributeName="r" values="5;6;5" dur="2s" repeatCount="indefinite" />
      </circle>
    </g>
    
    <!-- Arms -->
    <g id="arms">
      <!-- Left arm group -->
      <g id="left-arm">
        <!-- Shoulder joint -->
        <circle cx="165" cy="175" r="5" fill="none" stroke="#00FFFF" stroke-width="1.5" stroke-opacity="0.8" />
        
        <!-- Upper arm -->
        <line x1="165" y1="175" x2="145" y2="210" stroke="#00FFFF" stroke-width="2" stroke-opacity="0.9" filter="url(#cyan-glow)" />
        
        <!-- Elbow joint -->
        <circle cx="145" cy="210" r="5" fill="none" stroke="#00FFFF" stroke-width="1.5" stroke-opacity="0.8" />
        
        <!-- Forearm -->
        <line x1="145" y1="210" x2="155" y2="245" stroke="#00FFFF" stroke-width="2" stroke-opacity="0.9" filter="url(#cyan-glow)" />
        
        <!-- Wrist joint -->
        <circle cx="155" cy="245" r="4" fill="none" stroke="#00FFFF" stroke-width="1.5" stroke-opacity="0.8" />
        
        <!-- Hand (simple geometric shape) -->
        <polygon points="155,245 145,260 150,270 160,270 165,260" fill="none" stroke="#00FFFF" stroke-width="1.5" stroke-opacity="0.9" />
        
        <!-- Data flow along arm -->
        <circle cx="155" cy="195" r="2" fill="#00FFFF" fill-opacity="0.7">
          <animate attributeName="cy" values="175;245;175" dur="3s" repeatCount="indefinite" />
          <animate attributeName="fill-opacity" values="0.7;0.3;0.7" dur="3s" repeatCount="indefinite" />
        </circle>
      </g>
      
      <!-- Right arm group -->
      <g id="right-arm">
        <!-- Shoulder joint -->
        <circle cx="235" cy="175" r="5" fill="none" stroke="#00FFFF" stroke-width="1.5" stroke-opacity="0.8" />
        
        <!-- Upper arm -->
        <line x1="235" y1="175" x2="255" y2="210" stroke="#00FFFF" stroke-width="2" stroke-opacity="0.9" filter="url(#cyan-glow)" />
        
        <!-- Elbow joint -->
        <circle cx="255" cy="210" r="5" fill="none" stroke="#00FFFF" stroke-width="1.5" stroke-opacity="0.8" />
        
        <!-- Forearm -->
        <line x1="255" y1="210" x2="245" y2="245" stroke="#00FFFF" stroke-width="2" stroke-opacity="0.9" filter="url(#cyan-glow)" />
        
        <!-- Wrist joint -->
        <circle cx="245" cy="245" r="4" fill="none" stroke="#00FFFF" stroke-width="1.5" stroke-opacity="0.8" />
        
        <!-- Hand (simple geometric shape) -->
        <polygon points="245,245 255,260 250,270 240,270 235,260" fill="none" stroke="#00FFFF" stroke-width="1.5" stroke-opacity="0.9" />
        
        <!-- Data flow along arm -->
        <circle cx="245" cy="195" r="2" fill="#00FFFF" fill-opacity="0.7">
          <animate attributeName="cy" values="175;245;175" dur="3s" repeatCount="indefinite" begin="1.5s" />
          <animate attributeName="fill-opacity" values="0.7;0.3;0.7" dur="3s" repeatCount="indefinite" begin="1.5s" />
        </circle>
      </g>
      
      <!-- Connecting lines to torso -->
      <line x1="170" y1="170" x2="165" y2="175" stroke="#00FFFF" stroke-width="1.5" stroke-opacity="0.8" />
      <line x1="230" y1="170" x2="235" y2="175" stroke="#00FFFF" stroke-width="1.5" stroke-opacity="0.8" />
    </g>
    
    <!-- Legs -->
    <g id="legs">
      <!-- Left leg group -->
      <g id="left-leg">
        <!-- Hip joint -->
        <circle cx="185" cy="250" r="5" fill="none" stroke="#00FFFF" stroke-width="1.5" stroke-opacity="0.8" />
        
        <!-- Upper leg -->
        <line x1="185" y1="250" x2="180" y2="300" stroke="#00FFFF" stroke-width="2" stroke-opacity="0.9" filter="url(#cyan-glow)" />
        
        <!-- Knee joint -->
        <circle cx="180" cy="300" r="5" fill="none" stroke="#00FFFF" stroke-width="1.5" stroke-opacity="0.8" />
        
        <!-- Lower leg -->
        <line x1="180" y1="300" x2="175" y2="350" stroke="#00FFFF" stroke-width="2" stroke-opacity="0.9" filter="url(#cyan-glow)" />
        
        <!-- Ankle joint -->
        <circle cx="175" cy="350" r="4" fill="none" stroke="#00FFFF" stroke-width="1.5" stroke-opacity="0.8" />
        
        <!-- Foot -->
        <path d="M 175,350 L 165,355 L 165,360 L 185,360 L 185,355 L 175,350" fill="none" stroke="#00FFFF" stroke-width="1.5" stroke-opacity="0.9" />
        
        <!-- Data flow along leg -->
        <circle cx="182" cy="275" r="2" fill="#00FFFF" fill-opacity="0.7">
          <animate attributeName="cy" values="250;350;250" dur="4s" repeatCount="indefinite" />
          <animate attributeName="fill-opacity" values="0.7;0.3;0.7" dur="4s" repeatCount="indefinite" />
        </circle>
      </g>
      
      <!-- Right leg group -->
      <g id="right-leg">
        <!-- Hip joint -->
        <circle cx="215" cy="250" r="5" fill="none" stroke="#00FFFF" stroke-width="1.5" stroke-opacity="0.8" />
        
        <!-- Upper leg -->
        <line x1="215" y1="250" x2="220" y2="300" stroke="#00FFFF" stroke-width="2" stroke-opacity="0.9" filter="url(#cyan-glow)" />
        
        <!-- Knee joint -->
        <circle cx="220" cy="300" r="5" fill="none" stroke="#00FFFF" stroke-width="1.5" stroke-opacity="0.8" />
        
        <!-- Lower leg -->
        <line x1="220" y1="300" x2="225" y2="350" stroke="#00FFFF" stroke-width="2" stroke-opacity="0.9" filter="url(#cyan-glow)" />
        
        <!-- Ankle joint -->
        <circle cx="225" cy="350" r="4" fill="none" stroke="#00FFFF" stroke-width="1.5" stroke-opacity="0.8" />
        
        <!-- Foot -->
        <path d="M 225,350 L 235,355 L 235,360 L 215,360 L 215,355 L 225,350" fill="none" stroke="#00FFFF" stroke-width="1.5" stroke-opacity="0.9" />
        
        <!-- Data flow along leg -->
        <circle cx="218" cy="275" r="2" fill="#00FFFF" fill-opacity="0.7">
          <animate attributeName="cy" values="250;350;250" dur="4s" repeatCount="indefinite" begin="2s" />
          <animate attributeName="fill-opacity" values="0.7;0.3;0.7" dur="4s" repeatCount="indefinite" begin="2s" />
        </circle>
      </g>
      
      <!-- Connecting lines to torso -->
      <line x1="185" y1="250" x2="180" y2="240" stroke="#00FFFF" stroke-width="1.5" stroke-opacity="0.8" />
      <line x1="215" y1="250" x2="220" y2="240" stroke="#00FFFF" stroke-width="1.5" stroke-opacity="0.8" />
    </g>
  </g>
  
  <!-- Data flow aura around avatar -->
  <g id="data-aura" opacity="0.5">
    <!-- Subtle aura outline -->
    <path d="M 150,100 C 140,150 140,300 170,360 C 180,380 220,380 230,360 C 260,300 260,150 250,100 C 220,70 180,70 150,100" fill="none" stroke="#00FFFF" stroke-width="1" stroke-opacity="0.3" stroke-dasharray="5 8">
      <animate attributeName="stroke-opacity" values="0.3;0.5;0.3" dur="5s" repeatCount="indefinite" />
    </path>
    
    <!-- Data particles -->
    <circle cx="175" cy="150" r="2" fill="#00FFFF" fill-opacity="0.6">
      <animate attributeName="cy" values="100;140;100" dur="3s" repeatCount="indefinite" />
      <animate attributeName="cx" values="175;170;175" dur="3s" repeatCount="indefinite" />
    </circle>
    
    <circle cx="225" cy="200" r="2" fill="#00FFFF" fill-opacity="0.6">
      <animate attributeName="cy" values="200;240;200" dur="4s" repeatCount="indefinite" />
      <animate attributeName="cx" values="225;230;225" dur="4s" repeatCount="indefinite" />
    </circle>
    
    <circle cx="180" cy="280" r="2" fill="#00FFFF" fill-opacity="0.6">
      <animate attributeName="cy" values="280;320;280" dur="5s" repeatCount="indefinite" />
      <animate attributeName="cx" values="180;175;180" dur="5s" repeatCount="indefinite" />
    </circle>
    
    <circle cx="220" cy="260" r="2" fill="#00FFFF" fill-opacity="0.6">
      <animate attributeName="cy" values="260;300;260" dur="3.5s" repeatCount="indefinite" />
      <animate attributeName="cx" values="220;225;220" dur="3.5s" repeatCount="indefinite" />
    </circle>
  </g>
  
  <!-- Interface elements -->
  <g id="interface-elements">
    <!-- Runner ID -->
    <g id="runner-id" transform="translate(50, 50)">
      <rect x="0" y="0" width="120" height="50" fill="none" stroke="#00FFFF" stroke-width="1.5" />
      <text x="60" y="20" font-family="monospace" font-size="12" fill="#00FFFF" text-anchor="middle">NETRUNNER.ID</text>
      <text x="60" y="40" font-family="monospace" font-size="14" fill="#00FFFF" text-anchor="middle">CIPHER</text>
    </g>
    
    <!-- Connection status -->
    <g id="connection-status" transform="translate(350, 50)">
      <circle cx="0" cy="0" r="8" fill="#00FFFF" fill-opacity="0.6">
        <animate attributeName="fill-opacity" values="0.6;1;0.6" dur="2s" repeatCount="indefinite" />
      </circle>
      <text x="0" y="25" font-family="monospace" font-size="10" fill="#00FFFF" text-anchor="middle">ONLINE</text>
    </g>
    
    <!-- Customization indicator -->
    <g id="customization" transform="translate(50, 450)">
      <rect x="0" y="0" width="100" height="30" fill="none" stroke="#00FFFF" stroke-width="1" />
      <text x="50" y="20" font-family="monospace" font-size="10" fill="#00FFFF" text-anchor="middle">CUSTOMIZABLE</text>
    </g>
    
    <!-- Color scheme indicator -->
    <g id="color-options" transform="translate(350, 450)">
      <rect x="-100" y="0" width="100" height="30" fill="none" stroke="#00FFFF" stroke-width="1" />
      <text x="-50" y="20" font-family="monospace" font-size="10" fill="#00FFFF" text-anchor="middle">COLORS: 16</text>
    </g>
  </g>
  
  <!-- Subtle pulse effect -->
  <g id="pulse-effect">
    <circle cx="200" cy="200" r="150" fill="none" stroke="#00FFFF" stroke-width="1" stroke-opacity="0">
      <animate attributeName="r" values="150;200;150" dur="4s" repeatCount="indefinite" />
      <animate attributeName="stroke-opacity" values="0;0.3;0" dur="4s" repeatCount="indefinite" />
    </circle>
  </g>
  
  <!-- Netrunner card style elements -->
  <g id="netrunner-style">
    <!-- Corner brackets -->
    <path d="M 20,20 L 40,20 L 40,40" stroke="#00FFFF" stroke-width="2" fill="none" />
    <path d="M 380,20 L 360,20 L 360,40" stroke="#00FFFF" stroke-width="2" fill="none" />
    <path d="M 20,480 L 40,480 L 40,460" stroke="#00FFFF" stroke-width="2" fill="none" />
    <path d="M 380,480 L 360,480 L 360,460" stroke="#00FFFF" stroke-width="2" fill="none" />
  </g>
  
  <!-- Title -->
  <text x="200" y="30" font-family="monospace" font-size="16" fill="#00FFFF" text-anchor="middle" filter="url(#soft-glow)">PC NETRUNNER AVATAR</text>
</svg>